# xmcd CD database file
#
# Track frame offsets:
#	150
#	17027
#	29260
#	43061
#	54203
#	72844
#	86493
#	96023
#	107473
#	124910
#	139353
#
# Disc length: 1967 seconds
#
# Revision: 0
# Processed by: cddbd v1.5.1PL0 Copyright (c) Steve Scherf et al.
# Submitted via: CDex 1.51
#
DISCID=8c07ad0b
DTITLE=Antigua Jazz Band - Antigua Jazz Band
DYEAR=1998
DGENRE=Jazz
TTITLE0=The Mooche
TTITLE1=Dippermouth Blues
TTITLE2=Blues I love to sing
TTITLE3=Sadie green the vamp of new orleans
TTITLE4=Black and tan fantasy
TTITLE5=If I let you get away with it
TTITLE6=Antigua stomp
TTITLE7=Riverside blues
TTITLE8=St. Louis blues
TTITLE9=Mood indigo
TTITLE10=Messin around
EXTD=YEAR: 1998
EXTT0=
EXTT1=
EXTT2=
EXTT3=
EXTT4=
EXTT5=
EXTT6=
EXTT7=
EXTT8=
EXTT9=
EXTT10=
PLAYORDER=
